<svg width="22" height="22" viewBox="0 0 22 22" fill="none" xmlns="http://www.w3.org/2000/svg">
<path d="M6.46794 2.21651L7.53769 1.89476C8.12371 1.71805 8.754 1.76059 9.31096 2.01444C9.86791 2.26829 10.3135 2.71611 10.5645 3.27434L11.3914 5.11318C11.6072 5.59333 11.6673 6.129 11.5632 6.64505C11.4592 7.1611 11.1962 7.63162 10.8111 7.99059L9.44161 9.26751C9.40158 9.30481 9.37622 9.35521 9.37011 9.40959C9.32978 9.77351 9.57636 10.4821 10.1447 11.4675C10.5581 12.1834 10.933 12.6867 11.2511 12.9681C11.4729 13.1652 11.5949 13.2073 11.6471 13.1927L13.4896 12.6289C13.9928 12.475 14.5315 12.4824 15.0302 12.6501C15.529 12.8178 15.9628 13.1373 16.2708 13.5639L17.445 15.1919C17.8021 15.687 17.9674 16.2948 17.9103 16.9026C17.8531 17.5103 17.5774 18.0767 17.1343 18.4965L16.3221 19.2665C15.8911 19.6747 15.3616 19.9643 14.7854 20.1071C14.2092 20.2499 13.6058 20.2411 13.034 20.0814C10.5095 19.3765 8.24628 17.2462 6.21861 13.7344C4.18819 10.2181 3.47594 7.18943 4.13228 4.64751C4.28002 4.07582 4.57254 3.55182 4.98164 3.12602C5.39073 2.70023 5.90261 2.38699 6.46794 2.21651ZM6.86486 3.53376C6.52576 3.63593 6.21868 3.82369 5.9732 4.07896C5.72772 4.33424 5.55211 4.64842 5.46328 4.99126C4.91144 7.12893 5.54303 9.81384 7.40936 13.0469C9.27294 16.2754 11.2795 18.1638 13.4044 18.7578C13.7473 18.8533 14.1092 18.8584 14.4547 18.7726C14.8002 18.6868 15.1176 18.5131 15.3761 18.2683L16.1892 17.4983C16.3907 17.3074 16.5161 17.0499 16.542 16.7736C16.568 16.4973 16.4928 16.2209 16.3304 15.9958L15.157 14.3688C15.017 14.1746 14.8197 14.0292 14.5928 13.9529C14.366 13.8766 14.1209 13.8733 13.892 13.9434L12.0449 14.509C10.9724 14.828 9.99894 13.9654 8.95394 12.155C8.24994 10.9358 7.92178 9.99168 8.00336 9.25743C8.04644 8.87609 8.22336 8.52409 8.50386 8.26193L9.87336 6.98501C10.0485 6.82186 10.1681 6.60797 10.2154 6.37336C10.2628 6.13876 10.2355 5.89522 10.1374 5.67693L9.31053 3.83809C9.19642 3.58455 8.99402 3.38115 8.74104 3.26579C8.48807 3.15043 8.20177 3.13099 7.93553 3.21109L6.86486 3.53376Z" fill="#BCBCBC"/>
</svg>
