<svg width="19" height="21" viewBox="0 0 19 21" fill="none" xmlns="http://www.w3.org/2000/svg">
<path d="M3.80002 3.14999C3.29611 3.14999 2.81284 3.37124 2.45652 3.76507C2.1002 4.1589 1.90002 4.69304 1.90002 5.24999V13.65C1.90002 14.2069 2.1002 14.7411 2.45652 15.1349C2.81284 15.5287 3.29611 15.75 3.80002 15.75H10.925V15.0454C10.8437 14.9342 10.767 14.8189 10.6951 14.7H3.80002C3.54807 14.7 3.30643 14.5894 3.12827 14.3925C2.95011 14.1955 2.85002 13.9285 2.85002 13.65V5.24999C2.85002 4.97152 2.95011 4.70445 3.12827 4.50753C3.30643 4.31062 3.54807 4.19999 3.80002 4.19999H15.2C15.452 4.19999 15.6936 4.31062 15.8718 4.50753C16.0499 4.70445 16.15 4.97152 16.15 5.24999V7.84139C16.4958 8.03039 16.815 8.27189 17.1 8.55329V5.24999C17.1 4.69304 16.8998 4.1589 16.5435 3.76507C16.1872 3.37124 15.7039 3.14999 15.2 3.14999H3.80002ZM17.575 12.075C17.575 13.0497 17.2247 13.9844 16.6012 14.6736C15.9776 15.3628 15.1319 15.75 14.25 15.75C13.3682 15.75 12.5225 15.3628 11.8989 14.6736C11.2753 13.9844 10.925 13.0497 10.925 12.075C10.925 11.1003 11.2753 10.1656 11.8989 9.47638C12.5225 8.78718 13.3682 8.39999 14.25 8.39999C15.1319 8.39999 15.9776 8.78718 16.6012 9.47638C17.2247 10.1656 17.575 11.1003 17.575 12.075ZM14.25 16.8C15.1288 16.8 15.9458 16.506 16.625 16.0041V18.9C16.625 18.9975 16.6005 19.0931 16.5541 19.176C16.5077 19.2589 16.4413 19.326 16.3624 19.3696C16.2835 19.4132 16.1952 19.4316 16.1074 19.4229C16.0195 19.4141 15.9356 19.3785 15.865 19.32L14.535 18.2175C14.4528 18.1493 14.3528 18.1125 14.25 18.1125C14.1472 18.1125 14.0472 18.1493 13.965 18.2175L12.635 19.32C12.5645 19.3785 12.4805 19.4141 12.3927 19.4229C12.3048 19.4316 12.2165 19.4132 12.1376 19.3696C12.0587 19.326 11.9923 19.2589 11.946 19.176C11.8996 19.0931 11.875 18.9975 11.875 18.9V16.0041C12.5775 16.5244 13.4044 16.8015 14.25 16.8ZM4.75002 6.82499C4.75002 6.68576 4.80007 6.55222 4.88915 6.45376C4.97823 6.35531 5.09905 6.29999 5.22502 6.29999H13.775C13.901 6.29999 14.0218 6.35531 14.1109 6.45376C14.2 6.55222 14.25 6.68576 14.25 6.82499C14.25 6.96423 14.2 7.09777 14.1109 7.19623C14.0218 7.29468 13.901 7.34999 13.775 7.34999H5.22502C5.09905 7.34999 4.97823 7.29468 4.88915 7.19623C4.80007 7.09777 4.75002 6.96423 4.75002 6.82499ZM5.22502 11.55C5.09905 11.55 4.97823 11.6053 4.88915 11.7038C4.80007 11.8022 4.75002 11.9358 4.75002 12.075C4.75002 12.2142 4.80007 12.3478 4.88915 12.4462C4.97823 12.5447 5.09905 12.6 5.22502 12.6H9.02502C9.151 12.6 9.27182 12.5447 9.3609 12.4462C9.44998 12.3478 9.50002 12.2142 9.50002 12.075C9.50002 11.9358 9.44998 11.8022 9.3609 11.7038C9.27182 11.6053 9.151 11.55 9.02502 11.55H5.22502Z" fill="white"/>
</svg>
