<svg width="55" height="55" viewBox="0 0 55 55" fill="none" xmlns="http://www.w3.org/2000/svg">
<path d="M47.3 4.40002H7.7C6.6 4.40002 5.5 5.50002 5.5 6.60002V37.4C5.5 38.5 6.6 39.6 7.7 39.6H47.3C48.6201 39.6 49.5 38.5 49.5 37.4V6.60002C49.5 5.50002 48.6201 4.40002 47.3 4.40002ZM8.36 13.86C8.36 12.5399 9.23992 11.66 10.56 11.66H23.76C25.0801 11.66 25.96 12.5399 25.96 13.86C25.96 15.1801 25.0801 16.06 23.76 16.06H10.56C9.24024 16.06 8.36 14.96 8.36 13.86ZM8.36 22.66C8.36 21.3399 9.23992 20.46 10.56 20.46H23.76C25.0801 20.46 25.96 21.3399 25.96 22.66C25.96 23.9801 25.0801 24.86 23.76 24.86H10.56C9.24024 24.86 8.36 23.76 8.36 22.66ZM32.56 33.66H10.56C9.23992 33.66 8.36 32.7801 8.36 31.46C8.36 30.1399 9.23992 29.26 10.56 29.26H32.56C33.8801 29.26 34.76 30.1399 34.76 31.46C34.76 32.56 33.66 33.66 32.56 33.66ZM42.9 22L38.5 19.1402L34.1 22L35.2 17.6L31.9 13.2H36.5201L38.5 8.80002L40.4799 13.2H45.1L41.8 17.6L42.9 22Z" fill="white"/>
</svg>
