<svg width="57" height="45" viewBox="0 0 57 45" fill="none" xmlns="http://www.w3.org/2000/svg">
<g clip-path="url(#clip0_56_17)">
<path d="M54.8438 13.4648L30.2622 5.93259C28.9227 5.52214 27.4774 5.52214 26.1388 5.93259L1.55634 13.4648C-0.518127 14.1003 -0.518127 16.8363 1.55634 17.4718L5.84185 18.7848C4.90156 19.9441 4.32346 21.3583 4.26618 22.9069C3.41753 23.3921 2.82005 24.2675 2.82005 25.3125C2.82005 26.2599 3.3206 27.0571 4.04146 27.5669L1.79163 37.6637C1.59599 38.5418 2.26574 39.375 3.16726 39.375H8.11195C9.01435 39.375 9.6841 38.5418 9.48847 37.6637L7.23863 27.5669C7.9595 27.0571 8.46005 26.2599 8.46005 25.3125C8.46005 24.2956 7.88988 23.4448 7.08001 22.9509C7.14698 21.6307 7.82378 20.4636 8.90332 19.7235L26.1379 25.0049C26.9363 25.2492 28.4679 25.5542 30.2613 25.0049L54.8438 17.4726C56.9191 16.8363 56.9191 14.1011 54.8438 13.4648ZM31.0897 27.6934C28.5755 28.4634 26.4331 28.038 25.3095 27.6934L12.5297 23.7779L11.28 33.75C11.28 36.8569 18.8553 39.375 28.2 39.375C37.5448 39.375 45.12 36.8569 45.12 33.75L43.8704 23.777L31.0897 27.6934Z" fill="white"/>
</g>
<defs>
<clipPath id="clip0_56_17">
<rect width="56.4" height="45" fill="white"/>
</clipPath>
</defs>
</svg>
