<svg width="19" height="19" viewBox="0 0 19 19" fill="none" xmlns="http://www.w3.org/2000/svg">
<path d="M6.74502 6.878L8.72221 9.20313L6.74621 11.5283C6.28772 11.9804 5.70578 12.2869 5.07356 12.4093C4.44134 12.5316 3.78706 12.4643 3.19299 12.2158C2.59892 11.9673 2.09157 11.5487 1.73474 11.0127C1.37791 10.4767 1.18753 9.84707 1.18753 9.20313C1.18753 8.55918 1.37791 7.9296 1.73474 7.39356C2.09157 6.85752 2.59892 6.43893 3.19299 6.19044C3.78706 5.94195 4.44134 5.87464 5.07356 5.99698C5.70578 6.11931 6.28772 6.42583 6.74621 6.878H6.74502ZM9.50002 8.28638L7.61902 6.07169L7.6024 6.05388C6.97957 5.43121 6.1861 5.00721 5.32231 4.83548C4.45852 4.66375 3.5632 4.75201 2.74957 5.08909C1.93594 5.42617 1.24052 5.99694 0.75126 6.72922C0.261996 7.46151 0.000854492 8.32243 0.000854492 9.20313C0.000854492 10.0838 0.261996 10.9447 0.75126 11.677C1.24052 12.4093 1.93594 12.9801 2.74957 13.3172C3.5632 13.6542 4.45852 13.7425 5.32231 13.5708C6.1861 13.399 6.97957 12.975 7.6024 12.3524L7.61902 12.3346L9.50002 10.1199L11.381 12.3346L11.3976 12.3524C12.0205 12.975 12.8139 13.399 13.6777 13.5708C14.5415 13.7425 15.4368 13.6542 16.2505 13.3172C17.0641 12.9801 17.7595 12.4093 18.2488 11.677C18.7381 10.9447 18.9992 10.0838 18.9992 9.20313C18.9992 8.32243 18.7381 7.46151 18.2488 6.72922C17.7595 5.99694 17.0641 5.42617 16.2505 5.08909C15.4368 4.75201 14.5415 4.66375 13.6777 4.83548C12.8139 5.00721 12.0205 5.43121 11.3976 6.05388L11.381 6.07169L9.50002 8.28638ZM10.279 9.20313L12.2538 6.878C12.7123 6.42583 13.2943 6.11931 13.9265 5.99698C14.5587 5.87464 15.213 5.94195 15.8071 6.19044C16.4011 6.43893 16.9085 6.85752 17.2653 7.39356C17.6221 7.9296 17.8125 8.55918 17.8125 9.20313C17.8125 9.84707 17.6221 10.4767 17.2653 11.0127C16.9085 11.5487 16.4011 11.9673 15.8071 12.2158C15.213 12.4643 14.5587 12.5316 13.9265 12.4093C13.2943 12.2869 12.7123 11.9804 12.2538 11.5283L10.279 9.20313Z" fill="white"/>
</svg>
