<svg width="22" height="22" viewBox="0 0 22 22" fill="none" xmlns="http://www.w3.org/2000/svg">
<path d="M12.4383 15.1684L12.7717 15.3607L12.6212 15.6177C12.2514 16.2645 11.7736 16.8434 11.2086 17.329C10.833 17.6609 10.3686 17.8758 9.87235 17.9473C9.41762 18.0368 8.94706 17.9102 8.59878 17.6046C8.44726 17.4682 8.33467 17.2941 8.27199 17.1003C8.20932 16.9063 8.19898 16.6992 8.24211 16.5C8.33241 16.0205 8.46212 15.5482 8.59636 15.0804C9.0086 13.6353 9.43232 12.1926 9.84458 10.7499C9.89417 10.5504 9.92971 10.3475 9.95119 10.1431C9.96799 9.97966 9.91581 9.81684 9.8071 9.69359C9.69854 9.57049 9.54331 9.49829 9.37917 9.49473H8.91605C8.95304 9.36971 8.98325 9.26309 9.02493 9.14048C9.02493 9.11739 9.08518 9.10107 9.11991 9.09655C10.1757 8.91579 11.2318 8.7444 12.3064 8.57996C12.5145 8.56478 12.7235 8.56478 12.9315 8.57996C12.8459 8.87638 12.7624 9.17053 12.6768 9.46228C12.0948 11.48 11.5136 13.4971 10.933 15.5135C10.8658 15.7452 10.8288 15.9766 10.7732 16.2222C10.7312 16.3676 10.7933 16.523 10.9238 16.5995C11.0441 16.6761 11.2025 16.6536 11.2966 16.5464C11.5039 16.3592 11.6989 16.1589 11.8802 15.9466C12.0633 15.7266 12.2183 15.4835 12.3851 15.2518C12.401 15.2229 12.4188 15.1951 12.4384 15.1685L12.4383 15.1684Z" fill="#BCBCBC"/>
<path d="M10.9099 5.49089C10.9061 5.11273 11.053 4.74863 11.3179 4.47884C11.583 4.20908 11.9443 4.0558 12.3225 4.0527C12.7073 4.04413 13.0798 4.18936 13.3572 4.45638C13.6345 4.7234 13.7938 5.08991 13.7998 5.47487C13.8057 5.85983 13.6579 6.23118 13.389 6.50676C13.1202 6.78219 12.7525 6.93903 12.3676 6.94242C11.9825 6.94581 11.6122 6.79542 11.3386 6.52455C11.0648 6.25381 10.9105 5.88501 10.9099 5.5001L10.9099 5.49089Z" fill="#BCBCBC"/>
<path d="M11 0C8.08264 0 5.28455 1.15885 3.22184 3.22184C1.15885 5.28467 0 8.08252 0 11C0 13.9175 1.15885 16.7155 3.22184 18.7782C5.28467 20.8412 8.08252 22 11 22C13.9175 22 16.7155 20.8412 18.7782 18.7782C20.8412 16.7153 22 13.9175 22 11C21.9963 8.08376 20.8363 5.28827 18.7741 3.22598C16.7119 1.16381 13.9163 0.00380451 11.0001 8.27008e-05L11 0ZM11 20.0452C8.60101 20.0452 6.30019 19.0923 4.60387 17.3959C2.90743 15.6996 1.95453 13.3988 1.95453 10.9998C1.95453 8.60068 2.90743 6.29994 4.60387 4.60362C6.30019 2.90718 8.60092 1.95428 11 1.95428C13.3991 1.95428 15.6998 2.90718 17.3961 4.60362C19.0926 6.29994 20.0455 8.60068 20.0455 10.9998C20.0431 13.3981 19.0893 15.6975 17.3935 17.3934C15.6977 19.0892 13.3984 20.0429 10.9999 20.0453L11 20.0452Z" fill="#BCBCBC"/>
</svg>
