<svg width="32" height="32" viewBox="0 0 32 32" fill="none" xmlns="http://www.w3.org/2000/svg">
<path d="M16 11.8342C13.7063 11.8342 11.8344 13.7061 11.8344 15.9999C11.8344 18.2936 13.7063 20.1655 16 20.1655C18.2938 20.1655 20.1657 18.2936 20.1657 15.9999C20.1657 13.7061 18.2938 11.8342 16 11.8342ZM28.4938 15.9999C28.4938 14.2749 28.5094 12.5655 28.4125 10.8436C28.3157 8.84361 27.8594 7.06861 26.3969 5.60611C24.9313 4.14048 23.1594 3.68736 21.1594 3.59048C19.4344 3.49361 17.725 3.50923 16.0031 3.50923C14.2781 3.50923 12.5688 3.49361 10.8469 3.59048C8.8469 3.68736 7.0719 4.14361 5.6094 5.60611C4.14378 7.07173 3.69065 8.84361 3.59378 10.8436C3.4969 12.5686 3.51253 14.278 3.51253 15.9999C3.51253 17.7217 3.4969 19.4342 3.59378 21.1561C3.69065 23.1561 4.1469 24.9311 5.6094 26.3936C7.07503 27.8592 8.8469 28.3124 10.8469 28.4092C12.5719 28.5061 14.2813 28.4905 16.0031 28.4905C17.7282 28.4905 19.4375 28.5061 21.1594 28.4092C23.1594 28.3124 24.9344 27.8561 26.3969 26.3936C27.8625 24.928 28.3157 23.1561 28.4125 21.1561C28.5125 19.4342 28.4938 17.7249 28.4938 15.9999ZM16 22.4092C12.4532 22.4092 9.59065 19.5467 9.59065 15.9999C9.59065 12.453 12.4532 9.59048 16 9.59048C19.5469 9.59048 22.4094 12.453 22.4094 15.9999C22.4094 19.5467 19.5469 22.4092 16 22.4092ZM22.6719 10.8249C21.8438 10.8249 21.175 10.1561 21.175 9.32798C21.175 8.49986 21.8438 7.83111 22.6719 7.83111C23.5 7.83111 24.1688 8.49986 24.1688 9.32798C24.169 9.52462 24.1305 9.71938 24.0553 9.9011C23.9802 10.0828 23.8699 10.2479 23.7309 10.387C23.5919 10.526 23.4267 10.6363 23.245 10.7114C23.0633 10.7866 22.8685 10.8251 22.6719 10.8249Z" fill="white"/>
</svg>
