<svg width="56" height="52" viewBox="0 0 56 52" fill="none" xmlns="http://www.w3.org/2000/svg">
<!-- <path d="M1.41477 49H0.306818L3.51136 40.2727H4.60227L7.80682 49H6.69886L4.09091 41.6534H4.02273L1.41477 49ZM1.82386 45.5909H6.28977V46.5284H1.82386V45.5909ZM10.0355 40.2727V49H9.02983V40.2727H10.0355ZM12.8832 40.2727V49H11.8775V40.2727H12.8832ZM18.2365 49V40.2727H19.2933V48.0625H23.3501V49H18.2365ZM27.5945 49.1364C26.9638 49.1364 26.4197 48.9972 25.9624 48.7188C25.5078 48.4375 25.157 48.0455 24.9098 47.5426C24.6655 47.0369 24.5433 46.4489 24.5433 45.7784C24.5433 45.108 24.6655 44.517 24.9098 44.0057C25.157 43.4915 25.5007 43.0909 25.9411 42.804C26.3842 42.5142 26.9013 42.3693 27.4922 42.3693C27.8331 42.3693 28.1697 42.4261 28.5021 42.5398C28.8345 42.6534 29.1371 42.8381 29.4098 43.0938C29.6825 43.3466 29.8999 43.6818 30.0618 44.0994C30.2237 44.517 30.3047 45.0312 30.3047 45.642V46.0682H25.2592V45.1989H29.282C29.282 44.8295 29.2081 44.5 29.0604 44.2102C28.9155 43.9205 28.7081 43.6918 28.4382 43.5241C28.1712 43.3565 27.8558 43.2727 27.4922 43.2727C27.0916 43.2727 26.745 43.3722 26.4524 43.571C26.1626 43.767 25.9396 44.0227 25.7834 44.3381C25.6271 44.6534 25.549 44.9915 25.549 45.3523V45.9318C25.549 46.4261 25.6342 46.8452 25.8047 47.1889C25.978 47.5298 26.218 47.7898 26.5249 47.9688C26.8317 48.1449 27.1882 48.233 27.5945 48.233C27.8587 48.233 28.0973 48.196 28.3104 48.1222C28.5263 48.0455 28.7124 47.9318 28.8686 47.7812C29.0249 47.6278 29.1456 47.4375 29.2308 47.2102L30.2024 47.483C30.1001 47.8125 29.9283 48.1023 29.6868 48.3523C29.4453 48.5994 29.147 48.7926 28.7919 48.9318C28.4368 49.0682 28.0376 49.1364 27.5945 49.1364ZM36.9876 42.4545L34.5671 49H33.5444L31.1239 42.4545H32.2148L34.0217 47.6705H34.0898L35.8967 42.4545H36.9876ZM40.8249 49.1364C40.1942 49.1364 39.6502 48.9972 39.1928 48.7188C38.7383 48.4375 38.3874 48.0455 38.1403 47.5426C37.896 47.0369 37.7738 46.4489 37.7738 45.7784C37.7738 45.108 37.896 44.517 38.1403 44.0057C38.3874 43.4915 38.7312 43.0909 39.1715 42.804C39.6147 42.5142 40.1317 42.3693 40.7227 42.3693C41.0636 42.3693 41.4002 42.4261 41.7326 42.5398C42.065 42.6534 42.3675 42.8381 42.6403 43.0938C42.913 43.3466 43.1303 43.6818 43.2923 44.0994C43.4542 44.517 43.5352 45.0312 43.5352 45.642V46.0682H38.4897V45.1989H42.5124C42.5124 44.8295 42.4386 44.5 42.2908 44.2102C42.146 43.9205 41.9386 43.6918 41.6687 43.5241C41.4016 43.3565 41.0863 43.2727 40.7227 43.2727C40.3221 43.2727 39.9755 43.3722 39.6829 43.571C39.3931 43.767 39.1701 44.0227 39.0138 44.3381C38.8576 44.6534 38.7795 44.9915 38.7795 45.3523V45.9318C38.7795 46.4261 38.8647 46.8452 39.0352 47.1889C39.2085 47.5298 39.4485 47.7898 39.7553 47.9688C40.0621 48.1449 40.4187 48.233 40.8249 48.233C41.0891 48.233 41.3278 48.196 41.5408 48.1222C41.7567 48.0455 41.9428 47.9318 42.0991 47.7812C42.2553 47.6278 42.3761 47.4375 42.4613 47.2102L43.4329 47.483C43.3306 47.8125 43.1587 48.1023 42.9173 48.3523C42.6758 48.5994 42.3775 48.7926 42.0224 48.9318C41.6673 49.0682 41.2681 49.1364 40.8249 49.1364ZM46.0707 40.2727V49H45.065V40.2727H46.0707ZM52.549 43.9205L51.6456 44.1761C51.5888 44.0256 51.505 43.8793 51.3942 43.7372C51.2862 43.5923 51.1385 43.473 50.951 43.3793C50.7635 43.2855 50.5234 43.2386 50.2308 43.2386C49.8303 43.2386 49.4964 43.331 49.2294 43.5156C48.9652 43.6974 48.8331 43.929 48.8331 44.2102C48.8331 44.4602 48.924 44.6577 49.1058 44.8026C49.2876 44.9474 49.5717 45.0682 49.9581 45.1648L50.9297 45.4034C51.5149 45.5455 51.951 45.7628 52.2379 46.0554C52.5249 46.3452 52.6683 46.7187 52.6683 47.1761C52.6683 47.5511 52.5604 47.8864 52.3445 48.1818C52.1314 48.4773 51.8331 48.7102 51.4496 48.8807C51.0661 49.0511 50.62 49.1364 50.1115 49.1364C49.4439 49.1364 48.8913 48.9915 48.4538 48.7017C48.0163 48.4119 47.7393 47.9886 47.6229 47.4318L48.5774 47.1932C48.6683 47.5455 48.8402 47.8097 49.093 47.9858C49.3487 48.1619 49.6825 48.25 50.0945 48.25C50.5632 48.25 50.9354 48.1506 51.2109 47.9517C51.4893 47.75 51.6286 47.5085 51.6286 47.2273C51.6286 47 51.549 46.8097 51.3899 46.6562C51.2308 46.5 50.9865 46.3835 50.657 46.3068L49.5661 46.0511C48.9666 45.9091 48.5263 45.6889 48.245 45.3906C47.9666 45.0895 47.8274 44.7131 47.8274 44.2614C47.8274 43.892 47.9311 43.5653 48.1385 43.2812C48.3487 42.9972 48.6342 42.7741 48.995 42.6122C49.3587 42.4503 49.7706 42.3693 50.2308 42.3693C50.8786 42.3693 51.3871 42.5114 51.7564 42.7955C52.1286 43.0795 52.3928 43.4545 52.549 43.9205Z" fill="white"/> -->
<rect x="11" y="21" width="5" height="9" fill="#0897DD"/>
<rect x="2" y="24" width="5" height="6" fill="#0897DD"/>
<rect x="21" y="16" width="5" height="14" fill="#646464"/>
<rect x="31" y="11" width="5" height="19" fill="#646464"/>
<rect x="41" y="5" width="5" height="25" fill="#646464"/>
<rect x="51" width="5" height="30" fill="#646464"/>
</svg>
