<svg width="60" height="60" viewBox="0 0 60 60" fill="none" xmlns="http://www.w3.org/2000/svg">
<path d="M47.5 22.5C47.5011 19.4872 46.7244 16.5252 45.2451 13.9007C43.7658 11.2761 41.6339 9.07794 39.056 7.5189C36.478 5.95985 33.5412 5.09276 30.5298 5.00155C27.5184 4.91035 24.5345 5.59812 21.8669 6.99828C19.1993 8.39845 16.9383 10.4636 15.3029 12.9938C13.6674 15.524 12.7129 18.4336 12.5317 21.4409C12.3505 24.4482 12.9487 27.4513 14.2685 30.1596C15.5882 32.8679 17.5848 35.1896 20.065 36.9L12.5 50L18.14 50.2325L21.16 55L29.825 39.99C29.885 39.99 29.94 40 30 40C30.06 40 30.115 39.9925 30.175 39.99L38.84 55L41.92 50.335L47.5 50L39.935 36.9C42.269 35.293 44.1772 33.1425 45.4951 30.6338C46.813 28.1252 47.5011 25.3337 47.5 22.5ZM17.5 22.5C17.5 20.0277 18.2331 17.611 19.6066 15.5554C20.9802 13.4997 22.9324 11.8976 25.2165 10.9515C27.5005 10.0054 30.0139 9.75785 32.4386 10.2402C34.8634 10.7225 37.0907 11.913 38.8388 13.6611C40.587 15.4093 41.7775 17.6366 42.2598 20.0614C42.7421 22.4861 42.4946 24.9994 41.5485 27.2835C40.6024 29.5676 39.0002 31.5198 36.9446 32.8933C34.889 34.2669 32.4723 35 30 35C26.6848 35 23.5054 33.683 21.1612 31.3388C18.817 28.9946 17.5 25.8152 17.5 22.5Z" fill="white"/>
<path d="M30 30C34.1421 30 37.5 26.6421 37.5 22.5C37.5 18.3579 34.1421 15 30 15C25.8579 15 22.5 18.3579 22.5 22.5C22.5 26.6421 25.8579 30 30 30Z" fill="white"/>
</svg>
